<svg xmlns="http://www.w3.org/2000/svg" xmlns:xlink="http://www.w3.org/1999/xlink" width="64" height="64" viewBox="0 0 64 64"><defs><path id="nxf7a" d="M832 1008a8 8 0 0 1 8-8h40a8 8 0 0 1 8 8v32a8 8 0 0 1-8 8h-16v8h-28a4 4 0 0 1-4-4z"/><path id="nxf7c" d="M845.22 1024.965a3.635 3.635 0 1 1 7.27 0 3.635 3.635 0 0 1-7.27 0zm12.11 0a3.635 3.635 0 1 1 7.27 0 3.635 3.635 0 0 1-7.27 0zm12.11 0a3.635 3.635 0 1 1 7.27 0 3.635 3.635 0 0 1-7.27 0z"/><path id="nxf7d" d="M896 1039a8 8 0 0 0-8-8h-20a8 8 0 0 0-8 8v12a7.997 7.997 0 0 0 4 6.93v5.07h28a4 4 0 0 0 4-4z"/><path id="nxf7f" d="M868.4 1045.265a3.635 3.635 0 1 1 7.27 0 3.635 3.635 0 0 1-7.27 0zm12.11 0a3.635 3.635 0 1 1 7.27 0 3.635 3.635 0 0 1-7.27 0z"/><linearGradient id="nxf7b" x1="832" x2="888" y1="1000" y2="1056.57" gradientUnits="userSpaceOnUse"><stop offset="0" stop-color="#5a86ff"/><stop offset="1" stop-color="#4755dc"/></linearGradient><linearGradient id="nxf7e" x1="856.97" x2="884.88" y1="1027.19" y2="1047.29" gradientUnits="userSpaceOnUse"><stop offset="0" stop-color="#a0f356"/><stop offset="1" stop-color="#79ca4a"/></linearGradient></defs><g><g transform="translate(-832 -1000)"><g><use fill="url(#nxf7b)" xlink:href="#nxf7a"/></g><g><use fill="#fff" xlink:href="#nxf7c"/></g><g><use fill="url(#nxf7e)" xlink:href="#nxf7d"/></g><g><use fill="#fff" xlink:href="#nxf7f"/></g></g></g></svg>