<svg xmlns="http://www.w3.org/2000/svg" xmlns:xlink="http://www.w3.org/1999/xlink" width="64" height="64" viewBox="0 0 64 64"><defs><path id="3x1aa" d="M520.9 1038.915v-9.102c0-.942.55-1.6 1.232-1.418.568.152 1.354 1.66 3.387 1.538 2.034-.122 3.08-2.055 3.08-3.562 0-1.507-1.046-3.438-3.08-3.56-2.033-.121-2.82 1.386-3.387 1.537-.681.181-1.231-.462-1.231-1.403v-8.448a.665.665 0 0 0-.663-.667h-20.927c-1.829 0-3.311 1.493-3.311 3.336v21.75h9.293c.867 0 1.46-.515 1.293-1.153-.14-.53-1.527-1.265-1.415-3.166.112-1.901 1.891-2.878 3.279-2.878 1.387 0 3.168.977 3.28 2.878.112 1.9-1.277 2.636-1.416 3.166-.167.638.44 1.152 1.307 1.152z"/><path id="3x1ac" d="M520.998 1038.915h-9.071c-.938 0-1.593-.554-1.413-1.24.151-.572 1.654-1.364 1.533-3.413-.122-2.048-2.049-3.102-3.55-3.102s-3.426 1.054-3.547 3.102c-.121 2.049 1.38 2.84 1.53 3.412.182.687-.459 1.241-1.397 1.241H496v21.75a3.33 3.33 0 0 0 3.324 3.336h21.674v-9.363c0-.873-.513-1.47-1.149-1.302-.528.14-1.26 1.539-3.155 1.426-1.894-.114-2.868-1.906-2.868-3.304s.974-3.19 2.868-3.304c1.894-.113 2.627 1.286 3.155 1.426.636.169 1.149-.442 1.149-1.316z"/><path id="3x1ae" d="M538.058 1032.378c.18.321.585.437.906.257l7.35-4.116c.82-.46 1.662-.296 1.838.393.146.573-.782 2 .32 3.732 1.103 1.73 3.3 1.708 4.613.973 1.312-.735 2.482-2.598 1.592-4.448-.89-1.85-2.589-1.806-2.998-2.232-.492-.512-.202-1.31.618-1.77l7.36-4.121a.669.669 0 0 0 .257-.909l-10.256-18.425a3.323 3.323 0 0 0-4.528-1.288l-18.369 10.288a.669.669 0 0 0-.256.908l4.23 7.6c.424.763 1.163 1.033 1.636.575.394-.381.355-1.962 2.066-2.79 1.711-.83 3.434.26 4.114 1.482.68 1.221.701 3.265-.9 4.292-1.601 1.026-2.922.162-3.453.298-.637.164-.788.95-.363 1.713z"/><path id="3x1ag" d="M520.888 1038.91v9.102c0 .942-.552 1.6-1.237 1.418-.57-.151-1.358-1.66-3.4-1.537-2.041.121-3.091 2.055-3.091 3.561 0 1.507 1.05 3.438 3.091 3.56 2.042.122 2.83-1.385 3.4-1.536.685-.182 1.237.461 1.237 1.403v9.114h21.674a3.33 3.33 0 0 0 3.324-3.335v-21.083a.666.666 0 0 0-.665-.667h-8.665c-.87 0-1.465.515-1.297 1.152.14.53 1.533 1.266 1.42 3.167-.113 1.9-1.898 2.878-3.292 2.878-1.393 0-3.18-.977-3.292-2.878-.113-1.901 1.281-2.637 1.42-3.167.169-.637-.44-1.152-1.31-1.152z"/><linearGradient id="3x1ab" x1="498.87" x2="532.64" y1="1016.5" y2="1038.91" gradientUnits="userSpaceOnUse"><stop offset="0" stop-color="#ffdd3f"/><stop offset="1" stop-color="#ff9c08"/></linearGradient><linearGradient id="3x1ad" x1="493.89" x2="513.28" y1="1027.32" y2="1047.58" gradientUnits="userSpaceOnUse"><stop offset="0" stop-color="#a0f356"/><stop offset="1" stop-color="#79ca4a"/></linearGradient><linearGradient id="3x1af" x1="559.4" x2="526.91" y1="1033.48" y2="1000.5" gradientUnits="userSpaceOnUse"><stop offset="0" stop-color="#ff5980"/><stop offset="1" stop-color="#ffa882"/></linearGradient><linearGradient id="3x1ah" x1="514.07" x2="545.89" y1="1039.61" y2="1064" gradientUnits="userSpaceOnUse"><stop offset="0" stop-color="#7378fb"/><stop offset="1" stop-color="#5d3ece"/></linearGradient></defs><g><g transform="translate(-496 -1000)"><g><use fill="url(#3x1ab)" xlink:href="#3x1aa"/></g><g><use fill="url(#3x1ad)" xlink:href="#3x1ac"/></g><g><use fill="url(#3x1af)" xlink:href="#3x1ae"/></g><g><use fill="url(#3x1ah)" xlink:href="#3x1ag"/></g></g></g></svg>