<svg xmlns="http://www.w3.org/2000/svg" xmlns:xlink="http://www.w3.org/1999/xlink" width="64" height="61" viewBox="0 0 64 61"><defs><path id="zxysa" d="M864 792a4 4 0 0 1 4-4h24a4 4 0 0 1 4 4v24a4 4 0 0 1-4 4h-28z"/><path id="zxysc" d="M870 801.635a3.635 3.635 0 1 1 7.27 0 3.635 3.635 0 0 1-7.27 0zm12.11 0a3.635 3.635 0 1 1 7.27 0 3.635 3.635 0 0 1-7.27 0z"/><path id="zxysd" d="M832 772a4 4 0 0 1 4-4h38a4 4 0 0 1 4 4v32a4 4 0 0 1-4 4h-38a4 4 0 0 1-4-4z"/><path id="zxysf" d="M860 781a5 5 0 1 1-10 0 5 5 0 0 1 10 0m-12.554 19c-1.367 0-2.47-1.064-2.446-2.358.002-.077.002-.138.002-.181 0-5.225 4.477-9.461 9.998-9.461 5.522 0 9.998 4.236 9.998 9.46 0 .046 0 .112.002.195.017 1.29-1.084 2.345-2.446 2.345z"/><path id="zxysg" d="M836.892 774c-.492 0-.892-.447-.892-1 0-.552.4-1 .892-1h.216c.493 0 .892.448.892 1 0 .553-.4 1-.892 1zm3 0c-.492 0-.892-.447-.892-1 0-.552.4-1 .892-1h.216c.493 0 .892.448.892 1 0 .553-.4 1-.892 1zm3 0c-.492 0-.892-.447-.892-1 0-.552.4-1 .892-1h.216c.493 0 .892.448.892 1 0 .553-.4 1-.892 1z"/><path id="zxysh" d="M870 768a8 8 0 1 1 16 0 8 8 0 0 1-16 0z"/><path id="zxysj" d="M878.177 763.63l.887 2.546a.189.189 0 0 0 .17.13l2.584.098c.176.008.248.24.11.354l-2.035 1.672a.203.203 0 0 0-.065.21l.709 2.607c.048.177-.141.322-.287.218l-2.145-1.512a.182.182 0 0 0-.21 0l-2.145 1.512c-.146.104-.335-.04-.287-.218l.71-2.607a.205.205 0 0 0-.066-.21l-2.034-1.672c-.139-.114-.067-.346.109-.354l2.583-.098a.189.189 0 0 0 .17-.13l.888-2.546a.186.186 0 0 1 .354 0"/><linearGradient id="zxysb" x1="892.98" x2="880.28" y1="785.05" y2="816.38" gradientUnits="userSpaceOnUse"><stop offset="0" stop-color="#43465f" stop-opacity=".72"/><stop offset="1" stop-color="#2b3171"/></linearGradient><linearGradient id="zxyse" x1="828.12" x2="863.79" y1="763.32" y2="788" gradientUnits="userSpaceOnUse"><stop offset="0" stop-color="#a0f356"/><stop offset="1" stop-color="#79ca4a"/></linearGradient><linearGradient id="zxysi" x1="865.49" x2="880.7" y1="756.76" y2="769.93" gradientUnits="userSpaceOnUse"><stop offset="0" stop-color="#ffdd3f"/><stop offset="1" stop-color="#ff9c08"/></linearGradient></defs><g><g transform="translate(-832 -760)"><g><g><use fill="url(#zxysb)" xlink:href="#zxysa"/></g><g><use fill="#fff" xlink:href="#zxysc"/></g></g><g><g><use fill="url(#zxyse)" xlink:href="#zxysd"/></g><g><use fill="#fff" xlink:href="#zxysf"/></g><g opacity=".2"><use xlink:href="#zxysg"/></g></g><g><g><use fill="url(#zxysi)" xlink:href="#zxysh"/></g><g><use fill="#fff" xlink:href="#zxysj"/></g></g></g></g></svg>