<svg xmlns="http://www.w3.org/2000/svg" xmlns:xlink="http://www.w3.org/1999/xlink" width="69" height="66" viewBox="0 0 69 66"><defs><path id="1lbma" d="M339.441 524.37c4.396-5.44 4.288-14.215 1.785-16.618a20.16 20.16 0 0 0-9.684-5.097 18.497 18.497 0 0 0-3.675-.426v-9.366a4.011 4.011 0 0 0-4.005-3.903 4.011 4.011 0 0 0-4.005 3.903v20.892a2.072 2.072 0 0 1-.937 1.739 2.062 2.062 0 0 1-1.966.16c-3.579-1.6-5.223-2.8-7.378-1.396a4.034 4.034 0 0 0-.176 6.505 51.198 51.198 0 0 0 12.59 6.503"/><path id="1lbmb" d="M307.881 475.44v32.528c-14.444-10.532-30.331 0-30.331 0v-38.746s15.887-10.534 30.331 0"/><path id="1lbmc" d="M314.546 504.88a30.994 30.994 0 0 0-6.666 3.08"/><path id="1lbmd" d="M338.211 499.081v-29.859c-14.444-10.534-30.331 0-30.331 0"/></defs><g><g transform="translate(-276 -463)"><g><use fill="#fff" fill-opacity="0" stroke="#00e2e2" stroke-linecap="round" stroke-linejoin="round" stroke-miterlimit="50" stroke-width="3" xlink:href="#1lbma"/></g><g><use fill="#fff" fill-opacity="0" stroke="#4755dc" stroke-linecap="round" stroke-linejoin="round" stroke-miterlimit="50" stroke-width="3" xlink:href="#1lbmb"/></g><g><use fill="#fff" fill-opacity="0" stroke="#4755dc" stroke-linecap="round" stroke-linejoin="round" stroke-miterlimit="50" stroke-width="3" xlink:href="#1lbmc"/></g><g><use fill="#fff" fill-opacity="0" stroke="#4755dc" stroke-linecap="round" stroke-linejoin="round" stroke-miterlimit="50" stroke-width="3" xlink:href="#1lbmd"/></g></g></g></svg>