<svg xmlns="http://www.w3.org/2000/svg" xmlns:xlink="http://www.w3.org/1999/xlink" width="54" height="68" viewBox="0 0 54 68"><defs><path id="ro8da" d="M939.96 527.923c6.564-19.974 1.529-23.254-3.212-33.944a21.271 21.271 0 0 1 1.03-19.436c3.461-5.917 9.558-9.739 16.322-10.232a22.052 22.052 0 0 1 3.998 0c11.52 1.305 20.183 11.266 20.023 23.024v1.744l6.4 8.983a3.14 3.14 0 0 1 .437 2.75c-.29.935-1 1.676-1.912 1.998l-4.925 1.735v4.654a6.247 6.247 0 0 1-1.994 4.582 6.063 6.063 0 0 1-4.68 1.596l-3.977-.369a3.037 3.037 0 0 0-2.595 1.063 3.136 3.136 0 0 0-.656 2.76l2.172 9.08"/><path id="ro8db" d="M950.24 481.228a10.069 10.069 0 0 1 6.699-2.293c4.548 0 8.412 2.665 8.412 5.805-.313 2.585-2.21 4.683-4.723 5.22-2.181.732-5.219 1.387-5.219 6.041"/><path id="ro8dc" d="M955.41 501.434v.775"/></defs><g><g transform="translate(-933 -462)"><g><use fill="#fff" fill-opacity="0" stroke="#4755dc" stroke-linecap="round" stroke-linejoin="round" stroke-miterlimit="50" stroke-width="3" xlink:href="#ro8da"/></g><g><use fill="#fff" fill-opacity="0" stroke="#00e2e2" stroke-linecap="round" stroke-linejoin="round" stroke-miterlimit="50" stroke-width="3" xlink:href="#ro8db"/></g><g><use fill="#fff" fill-opacity="0" stroke="#00e2e2" stroke-linecap="round" stroke-linejoin="round" stroke-miterlimit="50" stroke-width="3" xlink:href="#ro8dc"/></g></g></g></svg>