<svg xmlns="http://www.w3.org/2000/svg" xmlns:xlink="http://www.w3.org/1999/xlink" width="75" height="68" viewBox="0 0 75 68"><defs><path id="n0iha" d="M649.4 486.63c10.134 2.086 17.605 9.28 17.605 17.83a16.698 16.698 0 0 1-7.142 13.184l-.575 10.202-8.984-5.76c-2.281.544-4.619.818-6.965.816-11.373 0-20.87-6.25-23.149-14.58"/><path id="n0ihb" d="M651.247 513.34l-7.655-16-7.652 16"/><path id="n0ihc" d="M637.69 509.69h11.812"/><path id="n0ihd" d="M612.43 482.405c0-4.642 3.425-8.405 7.65-8.405 4.225 0 7.65 3.763 7.65 8.405 0 4.642-3.425 8.405-7.65 8.405-4.225 0-7.65-3.763-7.65-8.405z"/><path id="n0ihe" d="M621.31 487.02c1.972 1.162 2.424 5.398 4.137 6.176"/><path id="n0ihf" d="M619.682 464.2c-13.07 0-23.682 8.256-23.682 18.438a16.705 16.705 0 0 0 7.142 13.188l.603 10.201 8.985-5.76c2.281.543 4.619.816 6.965.813 13.07 0 23.668-8.256 23.668-18.438 0-10.183-10.61-18.442-23.681-18.442z"/></defs><g><g transform="translate(-594 -462)"><g><use fill="#fff" fill-opacity="0" stroke="#00e2e2" stroke-linecap="round" stroke-linejoin="round" stroke-miterlimit="50" stroke-width="3" xlink:href="#n0iha"/></g><g><use fill="#fff" fill-opacity="0" stroke="#00e2e2" stroke-linecap="round" stroke-linejoin="round" stroke-miterlimit="50" stroke-width="3" xlink:href="#n0ihb"/></g><g><use fill="#fff" fill-opacity="0" stroke="#00e2e2" stroke-linecap="round" stroke-linejoin="round" stroke-miterlimit="50" stroke-width="3" xlink:href="#n0ihc"/></g><g><use fill="#fff" fill-opacity="0" stroke="#4755dc" stroke-linecap="round" stroke-linejoin="round" stroke-miterlimit="50" stroke-width="3" xlink:href="#n0ihd"/></g><g><use fill="#fff" fill-opacity="0" stroke="#4755dc" stroke-linecap="round" stroke-linejoin="round" stroke-miterlimit="50" stroke-width="3" xlink:href="#n0ihe"/></g><g><use fill="#fff" fill-opacity="0" stroke="#4755dc" stroke-linecap="round" stroke-linejoin="round" stroke-miterlimit="50" stroke-width="3" xlink:href="#n0ihf"/></g></g></g></svg>