<svg xmlns="http://www.w3.org/2000/svg" xmlns:xlink="http://www.w3.org/1999/xlink" width="64" height="64" viewBox="0 0 64 64"><defs><path id="qc6na" d="M655.21 895.998c-6.677 0-22.655-18.794-22.655-31.744.008-2.02.288-4.028.832-5.973-7.424 2.325-14.934 3.52-22.294-.363a2.133 2.133 0 0 0-3.093 1.899v46.25c-.001.71.35 1.374.939 1.771 19.989 13.142 39.978-12.97 59.968-2.56a2.133 2.133 0 0 0 3.093-1.813v-22.72c-5.248 8.32-12.693 15.253-16.79 15.253z"/><path id="qc6nc" d="M638.95 864.256c0-8.978 7.278-16.256 16.256-16.256 8.978 0 16.256 7.278 16.256 16.256 0 11.328-14.933 25.344-16.256 25.344-1.323 0-16.256-14.037-16.256-25.344zm11.355 4.903a6.929 6.929 0 0 0 11.831-4.903 6.932 6.932 0 0 0-6.93-6.933 6.932 6.932 0 0 0-4.9 11.836z"/><linearGradient id="qc6nb" x1="609.77" x2="672" y1="859.19" y2="911.63" gradientUnits="userSpaceOnUse"><stop offset="0" stop-color="#7378fb"/><stop offset="1" stop-color="#5d3ece"/></linearGradient><linearGradient id="qc6nd" x1="639.43" x2="670.89" y1="848.61" y2="888.86" gradientUnits="userSpaceOnUse"><stop offset="0" stop-color="#ff5980"/><stop offset="1" stop-color="#ffa882"/></linearGradient></defs><g><g transform="translate(-608 -848)"><g><use fill="url(#qc6nb)" xlink:href="#qc6na"/></g><g><use fill="url(#qc6nd)" xlink:href="#qc6nc"/></g></g></g></svg>