<svg xmlns="http://www.w3.org/2000/svg" xmlns:xlink="http://www.w3.org/1999/xlink" width="64" height="64" viewBox="0 0 64 64"><defs><path id="ozosa" d="M959.383 863.4a23.27 23.27 0 0 1 12.318-6.395v21.317l-15.046 14.943c-6.406-9.311-5.259-21.869 2.728-29.865zm20.842 26.829l9.015 9.015a23.144 23.144 0 0 1-9.015 3.772zm-8.524 12.797a23.134 23.134 0 0 1-9.015-3.733l9.015-9.021zm23.562-9.77l-15.038-15.047V856.9a23.433 23.433 0 0 1 17.307 14.047 23.453 23.453 0 0 1-2.27 22.181zm3.311-35.889a31.967 31.967 0 1 0 0 45.201c12.48-12.483 12.48-32.718 0-45.2z"/><linearGradient id="ozosb" x1="938.61" x2="988.18" y1="840.52" y2="879.97" gradientUnits="userSpaceOnUse"><stop offset="0" stop-color="#a0f356"/><stop offset="1" stop-color="#79ca4a"/></linearGradient></defs><g><g transform="translate(-944 -848)"><g><use fill="url(#ozosb)" xlink:href="#ozosa"/></g></g></g></svg>