<svg xmlns="http://www.w3.org/2000/svg" xmlns:xlink="http://www.w3.org/1999/xlink" width="76" height="64" viewBox="0 0 76 64"><defs><path id="2td2a" d="M325.727 863.568h-41.454a3.457 3.457 0 0 0-3.455 3.459c0 1.91 1.547 3.46 3.455 3.46h41.454a3.457 3.457 0 0 0 3.455-3.46c0-1.91-1.547-3.46-3.455-3.46zM284.998 848h40.004c2.159 0 4.207.976 5.575 2.655l11.201 13.76a5.451 5.451 0 0 1-.057 6.947l-32.596 38.714a5.386 5.386 0 0 1-8.25 0l-32.596-38.714a5.451 5.451 0 0 1-.057-6.947l11.2-13.76a7.19 7.19 0 0 1 5.576-2.655z"/><linearGradient id="2td2b" x1="255.26" x2="325.44" y1="840.97" y2="892.17" gradientUnits="userSpaceOnUse"><stop offset="0" stop-color="#ffdd3f"/><stop offset="1" stop-color="#ff9c08"/></linearGradient></defs><g><g transform="translate(-267 -848)"><use fill="url(#2td2b)" xlink:href="#2td2a"/></g></g></svg>