<svg xmlns="http://www.w3.org/2000/svg" xmlns:xlink="http://www.w3.org/1999/xlink" width="18" height="18" viewBox="0 0 18 18"><defs><path id="uh06a" d="M743 1445a2 2 0 1 0 0-4 2 2 0 0 0 0 4zm0-6h10a4 4 0 1 1 0 8h-10a4 4 0 1 1 0-8z"/><path id="uh06b" d="M753 1455a2 2 0 1 0 0-4 2 2 0 0 0 0 4zm-10-6h10a4 4 0 1 1 0 8h-10a4 4 0 1 1 0-8z"/></defs><g><g transform="translate(-739 -1439)"><g/><g><use fill="#4755dc" xlink:href="#uh06a"/></g><g opacity=".32"><use fill="#4755dc" xlink:href="#uh06b"/></g></g></g></svg>