<svg xmlns="http://www.w3.org/2000/svg" xmlns:xlink="http://www.w3.org/1999/xlink" width="20" height="16" viewBox="0 0 20 16"><defs><path id="anjsa" d="M451.82 1451.278c0-1.563 1.223-2.83 2.731-2.83 1.509 0 2.732 1.267 2.732 2.83 0 1.563-1.223 2.83-2.732 2.83-1.508 0-2.732-1.267-2.732-2.83zm10.907 0c0-1.563 1.223-2.83 2.732-2.83 1.508 0 2.731 1.267 2.731 2.83 0 1.563-1.223 2.83-2.731 2.83-1.51 0-2.732-1.267-2.732-2.83zm-1.707 1.365a4.547 4.547 0 0 0 8.784-2.354l-1.72-6.418a4.547 4.547 0 0 0-8.08-1.484 4.547 4.547 0 0 0-8.08 1.484l-1.718 6.418a4.547 4.547 0 0 0 8.784 2.354l.171-.64h1.687z"/></defs><g><g transform="translate(-450 -1440)"><g/><g><use fill="#4755dc" xlink:href="#anjsa"/></g></g></g></svg>