<svg xmlns="http://www.w3.org/2000/svg" xmlns:xlink="http://www.w3.org/1999/xlink" width="16" height="18" viewBox="0 0 16 18"><defs><path id="7iqba" d="M172.935 1516.076l6.427-5.116.158-.125a1.5 1.5 0 0 0 .002-2.35l-6.587-5.239a1.5 1.5 0 0 0-1.867 0l-6.592 5.242a1.5 1.5 0 0 0 0 2.347l.156.125 6.435 5.117a1.5 1.5 0 0 0 1.868-.001z"/><path id="7iqbb" d="M171.057 1518.671l-5.72-4.547a.903.903 0 0 0-1.277.154.91.91 0 0 0 .167 1.278l6.86 5.248a1.5 1.5 0 0 0 1.823 0l6.858-5.243a.915.915 0 0 0 .171-1.283l-.004-.006a.91.91 0 0 0-1.286-.154l-5.725 4.553a1.5 1.5 0 0 1-1.867 0z"/></defs><g><g transform="translate(-164 -1503)"><g/><g><use fill="#4755dc" xlink:href="#7iqba"/></g><g opacity=".3"><use fill="#4755dc" xlink:href="#7iqbb"/></g></g></g></svg>