<?xml version="1.0" encoding="utf-8"?>
<!-- Generator: Adobe Illustrator 22.1.0, SVG Export Plug-In . SVG Version: 6.00 Build 0)  -->
<svg version="1.1" id="Layer_1" xmlns="http://www.w3.org/2000/svg" xmlns:xlink="http://www.w3.org/1999/xlink" x="0px" y="0px"
	 viewBox="0 0 160 25" style="enable-background:new 0 0 160 25;" xml:space="preserve">
<style type="text/css">
	.st0{fill:#3E3A75;}
	.st1{fill:url(#SVGID_1_);}
	.st2{fill:url(#SVGID_2_);}
</style>
<g>
	<path class="st0" d="M52.7,8.9c1.5,0,2.8,0.5,3.7,1.5c0.9,1,1.4,2.3,1.4,4v8.2h-3.5v-8c0-0.8-0.2-1.4-0.6-1.9
		c-0.4-0.4-0.9-0.7-1.7-0.7c-0.8,0-1.4,0.3-1.8,0.8c-0.4,0.5-0.7,1.3-0.7,2.2v7.5h-3.5v-8c0-0.8-0.2-1.4-0.6-1.9
		c-0.4-0.4-0.9-0.7-1.7-0.7c-0.8,0-1.4,0.3-1.8,0.8c-0.5,0.5-0.7,1.3-0.7,2.2v7.5h-3.5V9.2h3.5v1.4c0.8-1.2,2-1.8,3.7-1.8
		c1.6,0,2.9,0.6,3.6,1.9C49.6,9.5,50.9,8.9,52.7,8.9z M70,9.2h3.5v13.4H70v-1.6c-1,1.3-2.5,2-4.4,2c-1.8,0-3.3-0.7-4.6-2
		c-1.3-1.4-1.9-3-1.9-5c0-2,0.6-3.7,1.9-5c1.3-1.4,2.8-2,4.6-2c1.9,0,3.3,0.7,4.4,2V9.2z M63.7,18.7c0.7,0.7,1.6,1.1,2.7,1.1
		c1.1,0,2-0.4,2.7-1.1C69.7,18,70,17,70,15.9c0-1.1-0.4-2-1.1-2.7c-0.7-0.7-1.6-1.1-2.7-1.1c-1.1,0-2,0.4-2.7,1.1
		c-0.7,0.7-1,1.6-1,2.7C62.6,17,63,18,63.7,18.7z M79.3,11.5c0.3-0.9,0.9-1.5,1.6-1.9C81.6,9.2,82.4,9,83.3,9v3.9
		c-1.1-0.1-2,0.1-2.8,0.6c-0.8,0.6-1.2,1.5-1.2,2.8v6.4h-3.5V9.2h3.5V11.5z M96.6,22.6h-4l-4.9-6.1v6.1h-3.5V3.9h3.5v11.2l4.6-5.9
		h4.1l-5.4,6.6L96.6,22.6z M99.6,17.4c0.5,1.7,1.7,2.5,3.8,2.5c1.3,0,2.3-0.4,3-1.3l2.8,1.6c-1.3,1.9-3.3,2.9-5.8,2.9
		c-2.2,0-4-0.7-5.3-2c-1.3-1.3-2-3-2-5.1c0-2,0.7-3.7,2-5c1.3-1.3,3-2,5.1-2c2,0,3.6,0.7,4.9,2c1.3,1.4,1.9,3,1.9,5
		c0,0.4,0,0.9-0.1,1.4H99.6z M99.6,14.7h6.8c-0.2-0.9-0.6-1.6-1.2-2c-0.6-0.4-1.3-0.7-2.1-0.7c-0.9,0-1.7,0.2-2.3,0.7
		C100.2,13.2,99.8,13.8,99.6,14.7z M119,12.6h-3v5.6c0,0.5,0.1,0.8,0.3,1c0.2,0.2,0.6,0.3,1,0.4c0.4,0,1,0,1.7,0v3.1
		c-2.4,0.3-4,0-5-0.7c-1-0.7-1.5-2-1.5-3.8v-5.6h-2.3V9.2h2.3V6.5l3.5-1v3.7h3V12.6z M126.8,23c-2,0-3.7-0.7-5-2c-1.3-1.4-2-3-2-5
		s0.7-3.7,2-5c1.3-1.4,3-2,5-2c1.3,0,2.5,0.3,3.6,0.9c1.1,0.6,1.9,1.5,2.4,2.5l-3,1.7c-0.3-0.6-0.7-1-1.2-1.3
		c-0.5-0.3-1.2-0.5-1.8-0.5c-1,0-1.9,0.3-2.6,1c-0.7,0.7-1,1.6-1,2.6c0,1.1,0.3,1.9,1,2.6c0.7,0.7,1.5,1,2.6,1
		c0.7,0,1.3-0.2,1.9-0.5c0.5-0.3,1-0.7,1.2-1.3l3,1.7c-0.6,1.1-1.4,1.9-2.5,2.5C129.3,22.7,128.1,23,126.8,23z M144,9.2h3.5v13.4
		H144v-1.6c-1,1.3-2.5,2-4.4,2c-1.8,0-3.3-0.7-4.6-2c-1.3-1.4-1.9-3-1.9-5c0-2,0.6-3.7,1.9-5c1.3-1.4,2.8-2,4.6-2
		c1.9,0,3.3,0.7,4.4,2V9.2z M137.6,18.7c0.7,0.7,1.6,1.1,2.7,1.1c1.1,0,2-0.4,2.7-1.1s1.1-1.6,1.1-2.7c0-1.1-0.4-2-1.1-2.7
		c-0.7-0.7-1.6-1.1-2.7-1.1c-1.1,0-2,0.4-2.7,1.1c-0.7,0.7-1,1.6-1,2.7C136.6,17,136.9,18,137.6,18.7z M149.8,22.6V3.1h3.5v19.6
		H149.8z M155.5,22.6V3.1h3.5v19.6H155.5z"/>
	<g>
		<g>
			<radialGradient id="SVGID_1_" cx="9.0701" cy="15.8338" r="8.7084" gradientUnits="userSpaceOnUse">
				<stop  offset="0" style="stop-color:#6DBF67"/>
				<stop  offset="1" style="stop-color:#00B0CC"/>
			</radialGradient>
			<path class="st1" d="M12.8,19.6c-1,1-2.3,1.5-3.7,1.5c-1.5,0-2.8-0.6-3.7-1.5c-1-1-1.5-2.3-1.5-3.7c0-1.5,0.6-2.8,1.5-3.7
				L2.9,9.7c-1.6,1.6-2.5,3.7-2.5,6.1s1,4.6,2.5,6.1c1.6,1.6,3.7,2.5,6.1,2.5c2.4,0,4.6-1,6.1-2.5L12.8,19.6z"/>
			<radialGradient id="SVGID_2_" cx="9.2843" cy="15.8603" r="30.2293" gradientUnits="userSpaceOnUse">
				<stop  offset="0" style="stop-color:#F9A51A"/>
				<stop  offset="1" style="stop-color:#EC0972"/>
			</radialGradient>
			<path class="st2" d="M10.4,14.6c0.3,0.3,0.5,0.8,0.5,1.3c0,0.5-0.2,1-0.5,1.3c-0.3,0.3-0.8,0.5-1.3,0.5c-0.5,0-1-0.2-1.3-0.5
				c-0.3-0.3-0.5-0.8-0.5-1.3c0-0.5,0.2-1,0.5-1.3C8.1,14.2,8.5,14,9.1,14C9.6,14,10,14.2,10.4,14.6z M9.1,7.2v3.4
				c1.4,0,2.8,0.6,3.7,1.5c1,1,1.5,2.3,1.5,3.7h3.4c0-2.4-1-4.6-2.5-6.1C13.6,8.2,11.5,7.2,9.1,7.2z M20,4.9
				c-2.8-2.8-6.7-4.6-11-4.6v3.4c3.3,0,6.4,1.4,8.6,3.5s3.5,5.2,3.5,8.6h3.4C24.6,11.6,22.8,7.7,20,4.9z"/>
		</g>
	</g>
</g>
</svg>
