<svg xmlns="http://www.w3.org/2000/svg" xmlns:xlink="http://www.w3.org/1999/xlink" width="19" height="18" viewBox="0 0 19 18"><defs><path id="qobla" d="M167 1455a2 2 0 1 0 0-4 2 2 0 0 0 0 4zm15-4v4a2 2 0 0 1-2 2h-12a4 4 0 1 1 0-8h12a2 2 0 0 1 2 2z"/><path id="qoblb" d="M167.003 1454.996a2 2 0 1 0 0-4 2 2 0 0 0 0 4zm8.542-13.3l2.829 2.828a2 2 0 0 1 0 2.829l-8.486 8.485a4 4 0 0 1-5.656-5.657l8.485-8.485a2 2 0 0 1 2.828 0z"/><path id="qoblc" d="M167 1455a2 2 0 1 0 0-4 2 2 0 0 0 0 4zm-2-16h4a2 2 0 0 1 2 2v12a4 4 0 1 1-8 0v-12a2 2 0 0 1 2-2z"/></defs><g><g transform="translate(-163 -1439)"><g/><g opacity=".3"><use fill="#4755dc" xlink:href="#qobla"/></g><g opacity=".3"><use fill="#4755dc" xlink:href="#qoblb"/></g><g><use fill="#4755dc" xlink:href="#qoblc"/></g></g></g></svg>