<svg width="84" height="45" viewBox="0 0 84 45" fill="none" xmlns="http://www.w3.org/2000/svg">
<path opacity="0.9" d="M81.1863 15.0337L42.9254 1.1623C42.3213 0.9459 41.6623 0.9459 41.0582 1.1623L2.80683 15.0337C1.72267 15.4303 1 16.4742 1 17.6436C1 18.8131 1.72267 19.857 2.80683 20.2535L21.493 27.0283V38.4514C21.493 43.8446 39.899 44 41.9973 44C44.0955 44 62.5015 43.8446 62.5015 38.4514V27.0283L66.6024 25.551V28.7414C66.6024 30.2736 67.8264 31.5157 69.3363 31.5157H72.0702C73.58 31.5157 74.8041 30.2736 74.8041 28.7414V24.58C74.8 23.9377 74.6473 23.3053 74.3584 22.7337L81.1932 20.2535C82.2773 19.857 83 18.8131 83 17.6436C83 16.4742 82.2773 15.4303 81.1932 15.0337H81.1863ZM59.7676 35.3997C54.5609 32.9944 43.5898 32.9029 41.9973 32.9029C40.4048 32.9029 29.4336 32.9944 24.2269 35.3997V20.5407C25.0471 19.4726 31.4936 17.6443 41.9973 17.6443C52.5009 17.6443 58.9474 19.4726 59.7676 20.5407V35.3997ZM41.9973 41.2257C31.8818 41.2257 25.5296 39.5306 24.3418 38.4514C25.5296 37.3722 31.8846 35.6772 41.9973 35.6772C52.11 35.6772 58.4649 37.3722 59.6528 38.4514C58.4649 39.5306 52.1127 41.2257 41.9973 41.2257V41.2257ZM67.2435 22.3675L62.5015 24.0834V20.4186C62.5015 15.0254 44.0955 14.87 41.9973 14.87C39.899 14.87 21.493 15.0254 21.493 20.4186V24.082L3.72269 17.6443L42.0164 3.7729L69.3363 13.6799V20.6738C68.4719 20.9855 67.7352 21.5817 67.2435 22.3675ZM72.0702 28.7414H69.3363V24.58C69.3363 23.8139 69.9483 23.1929 70.7032 23.1929C71.4581 23.1929 72.0702 23.8139 72.0702 24.58V28.7414ZM72.0702 20.6183V14.6717L80.2719 17.6443L72.0702 20.6183Z" fill="#0A0A0A"/>
<path opacity="0.9" fill-rule="evenodd" clip-rule="evenodd" d="M40.8562 0.597343C41.5912 0.334089 42.3932 0.334089 43.1281 0.597343L43.1303 0.598124L81.2921 14.4336H81.2999L81.3997 14.4701C82.7245 14.9547 83.6004 16.2266 83.6004 17.6435C83.6004 19.0604 82.7245 20.3323 81.3997 20.8169L81.3982 20.8174L75.1543 23.0833C75.3163 23.5627 75.4012 24.0667 75.4044 24.5761L75.4045 24.5799L75.4044 28.7413C75.4044 30.5966 73.9201 32.1156 72.0705 32.1156H69.3366C67.4871 32.1156 66.0027 30.5966 66.0027 28.7413V26.4048L63.1019 27.4498V38.4513C63.1019 40.1946 61.6166 41.3594 59.8346 42.1428C58.0017 42.9486 55.5718 43.4828 53.1237 43.8417C48.2152 44.5613 43.0536 44.5999 41.9977 44.5999C40.9417 44.5999 35.7801 44.5613 30.8717 43.8417C28.4235 43.4828 25.9936 42.9486 24.1607 42.1428C22.3787 41.3594 20.8934 40.1946 20.8934 38.4513V27.4489L2.60271 20.8175L2.60111 20.8169C1.27626 20.3323 0.400391 19.0604 0.400391 17.6435C0.400391 16.2266 1.27626 14.9547 2.60111 14.4701L2.60267 14.4696L40.854 0.598145L40.8562 0.597343ZM41.2619 1.7267C41.2616 1.72682 41.2612 1.72694 41.2609 1.72706L3.01334 15.5971C3.01306 15.5972 3.01361 15.597 3.01334 15.5971C2.17033 15.9059 1.60039 16.7218 1.60039 17.6435C1.60039 18.5652 2.16945 19.3808 3.01239 19.6896C3.01271 19.6897 3.01302 19.6898 3.01334 19.6899L22.0934 26.6075V38.4513C22.0934 39.4046 22.9089 40.2817 24.6436 41.0443C26.3274 41.7845 28.6301 42.3003 31.0457 42.6544C35.8648 43.3609 40.9553 43.3999 41.9977 43.3999C43.04 43.3999 48.1305 43.3609 52.9496 42.6544C55.3652 42.3003 57.668 41.7845 59.3517 41.0443C61.0864 40.2817 61.9019 39.4046 61.9019 38.4513V26.6066L67.2027 24.697V28.7413C67.2027 29.9505 68.1664 30.9156 69.3366 30.9156H72.0705C73.2408 30.9156 74.2044 29.9505 74.2044 28.7413L74.2045 24.5837C74.2045 24.5833 74.2044 24.583 74.2044 24.5826C74.2008 24.0331 74.0701 23.4925 73.8233 23.0043L73.5181 22.4004L80.9874 19.6899C80.9878 19.6898 80.9881 19.6897 80.9884 19.6896C81.8314 19.3808 82.4004 18.5652 82.4004 17.6435C82.4004 16.7536 81.8699 15.9626 81.0746 15.6312L42.7235 1.72706C42.7232 1.72695 42.7229 1.72683 42.7225 1.72672C42.2498 1.55764 41.7346 1.55763 41.2619 1.7267ZM42.0169 3.13461L69.9366 13.2591V21.0952L69.5402 21.2382C68.8034 21.5038 68.1736 22.0127 67.7525 22.6857L67.6427 22.8612L61.9019 24.9385V20.4185C61.9019 19.4652 61.0864 18.5881 59.3517 17.8255C57.668 17.0854 55.3652 16.5695 52.9496 16.2154C48.1305 15.509 43.04 15.4699 41.9977 15.4699C40.9553 15.4699 35.8648 15.509 31.0457 16.2154C28.6301 16.5695 26.3274 17.0854 24.6436 17.8255C22.9089 18.5881 22.0934 19.4652 22.0934 20.4185V24.9375L1.96146 17.6442L42.0169 3.13461ZM5.4847 17.6442L20.8934 23.2264V20.4185C20.8934 18.6752 22.3787 17.5104 24.1607 16.727C25.9936 15.9212 28.4235 15.387 30.8717 15.0281C35.7801 14.3086 40.9417 14.2699 41.9977 14.2699C43.0536 14.2699 48.2152 14.3086 53.1237 15.0281C55.5718 15.387 58.0017 15.9212 59.8346 16.727C61.6166 17.5104 63.1019 18.6752 63.1019 20.4185V23.2281L66.8523 21.871C67.3299 21.1785 67.9805 20.6272 68.7366 20.2732V14.1004L42.0167 4.41099L5.4847 17.6442ZM71.4705 13.8159L82.0327 17.6441L71.4705 21.474V13.8159ZM72.6705 15.5272V19.7625L78.5118 17.6443L72.6705 15.5272ZM24.8273 20.7966V34.4986C27.5033 33.4819 31.179 32.943 34.414 32.6516C38.0319 32.3258 41.1926 32.3028 41.9977 32.3028C42.8027 32.3028 45.9635 32.3258 49.5813 32.6516C52.8163 32.943 56.4921 33.4819 59.168 34.4986V20.7966C59.108 20.7526 59.0241 20.6979 58.9094 20.6345C58.6701 20.5022 58.3408 20.3553 57.9173 20.2012C57.0714 19.8935 55.8926 19.5721 54.3992 19.2808C51.4151 18.6986 47.2165 18.2442 41.9977 18.2442C36.7788 18.2442 32.5802 18.6986 29.5961 19.2808C28.1027 19.5721 26.9239 19.8935 26.078 20.2012C25.6546 20.3553 25.3253 20.5022 25.0859 20.6345C24.9712 20.6979 24.8873 20.7526 24.8273 20.7966ZM29.3663 18.103C32.4364 17.504 36.7129 17.0442 41.9977 17.0442C47.2824 17.0442 51.5589 17.504 54.629 18.103C56.1628 18.4022 57.4058 18.7382 58.3276 19.0736C58.788 19.2411 59.1789 19.4123 59.4901 19.5844C59.7878 19.749 60.0653 19.9426 60.2439 20.1751L60.368 20.3368V36.3377L59.5164 35.9443C57.0163 34.7894 53.0652 34.1702 49.4737 33.8468C45.9062 33.5255 42.7851 33.5028 41.9977 33.5028C41.2102 33.5028 38.0891 33.5255 34.5216 33.8468C30.9301 34.1702 26.979 34.7894 24.4789 35.9443L23.6273 36.3377V20.3368L23.7514 20.1751C23.93 19.9426 24.2075 19.749 24.5052 19.5844C24.8164 19.4123 25.2074 19.2411 25.6677 19.0736C26.5895 18.7382 27.8325 18.4022 29.3663 18.103ZM70.7036 23.7928C70.2883 23.7928 69.9366 24.1369 69.9366 24.5799V28.1413H71.4705V24.5799C71.4705 24.1369 71.1189 23.7928 70.7036 23.7928ZM68.7366 24.5799C68.7366 23.4908 69.609 22.5928 70.7036 22.5928C71.7982 22.5928 72.6705 23.4908 72.6705 24.5799V29.3413H68.7366V24.5799ZM25.5299 38.4514C25.7603 38.5518 26.0395 38.6596 26.3713 38.7716C27.2582 39.0709 28.451 39.3776 29.9319 39.6533C32.8921 40.2044 36.9719 40.6256 41.9977 40.6256C47.0235 40.6256 51.1032 40.2044 54.0634 39.6533C55.5443 39.3776 56.7371 39.0709 57.624 38.7716C57.9558 38.6596 58.235 38.5518 58.4654 38.4514C58.2349 38.3509 57.9556 38.2431 57.6237 38.1311C56.7365 37.8318 55.5435 37.5251 54.0624 37.2494C51.1018 36.6983 47.0221 36.2771 41.9977 36.2771C36.9732 36.2771 32.8935 36.6983 29.9329 37.2494C28.4518 37.5251 27.2588 37.8318 26.3717 38.1311C26.0397 38.2431 25.7604 38.3509 25.5299 38.4514ZM29.7133 36.0696C32.7553 35.5034 36.9094 35.0771 41.9977 35.0771C47.0859 35.0771 51.24 35.5034 54.282 36.0696C55.8023 36.3526 57.0527 36.672 58.0073 36.9941C58.9347 37.3069 59.66 37.6469 60.0566 38.0072L60.5455 38.4513L60.0566 38.8954C59.6601 39.2557 58.9349 39.5957 58.0077 39.9086C57.0534 40.2307 55.8031 40.5501 54.2831 40.833C51.2413 41.3993 47.0873 41.8256 41.9977 41.8256C36.908 41.8256 32.754 41.3993 29.7123 40.833C28.1922 40.5501 26.942 40.2307 25.9876 39.9086C25.0604 39.5957 24.3352 39.2557 23.9387 38.8954L23.4499 38.4513L23.9387 38.0072C24.3353 37.6469 25.0606 37.3069 25.988 36.9941C26.9426 36.672 28.1931 36.3526 29.7133 36.0696Z" fill="#0A0A0A"/>
</svg>
